<svg xmlns="http://www.w3.org/2000/svg" viewBox="0 0 256 256" width="256" height="256">
<defs>
<radialGradient id="bgtcollision" cx="50%" cy="38%" r="75%"><stop offset="0" stop-color="#FF4D6D" stop-opacity=".38"/><stop offset="1" stop-color="#0B111A"/></radialGradient>
<pattern id="sttcollision" width="16" height="16" patternUnits="userSpaceOnUse" patternTransform="rotate(35)"><rect width="6" height="16" fill="#fff" opacity=".035"/></pattern>
<filter id="gltcollision" x="-30%" y="-30%" width="160%" height="160%"><feGaussianBlur stdDeviation="7" result="b"/><feMerge><feMergeNode in="b"/><feMergeNode in="SourceGraphic"/></feMerge></filter>
</defs>
<rect width="256" height="256" fill="url(#bgtcollision)"/><rect width="256" height="256" fill="url(#sttcollision)"/>
<g transform="translate(120 130) scale(9)" fill="none" stroke="#FF4D6D" stroke-opacity=".16" stroke-width="1.2" stroke-linecap="round" stroke-linejoin="round">
  <path d="M7 18v-6a5 5 0 1 1 10 0v6" />
  <path d="M5 21a1 1 0 0 0 1 1h12a1 1 0 0 0 1-1v-1a2 2 0 0 0-2-2H7a2 2 0 0 0-2 2z" />
  <path d="M21 12h1" />
  <path d="M18.5 4.5 18 5" />
  <path d="M2 12h1" />
  <path d="M12 2v1" />
  <path d="m4.929 4.929.707.707" />
  <path d="M12 12v6" />
</g>
<g transform="translate(68 68) scale(5)" fill="none" stroke="#FF4D6D" stroke-width="1.7" stroke-linecap="round" stroke-linejoin="round" filter="url(#gltcollision)">
  <path d="M7 18v-6a5 5 0 1 1 10 0v6" />
  <path d="M5 21a1 1 0 0 0 1 1h12a1 1 0 0 0 1-1v-1a2 2 0 0 0-2-2H7a2 2 0 0 0-2 2z" />
  <path d="M21 12h1" />
  <path d="M18.5 4.5 18 5" />
  <path d="M2 12h1" />
  <path d="M12 2v1" />
  <path d="m4.929 4.929.707.707" />
  <path d="M12 12v6" />
</g>
</svg>