<svg xmlns="http://www.w3.org/2000/svg" viewBox="0 0 256 256" width="256" height="256">
<defs>
<radialGradient id="bgttraffic_light" cx="50%" cy="38%" r="75%"><stop offset="0" stop-color="#FF7849" stop-opacity=".38"/><stop offset="1" stop-color="#0B111A"/></radialGradient>
<pattern id="stttraffic_light" width="16" height="16" patternUnits="userSpaceOnUse" patternTransform="rotate(35)"><rect width="6" height="16" fill="#fff" opacity=".035"/></pattern>
<filter id="glttraffic_light" x="-30%" y="-30%" width="160%" height="160%"><feGaussianBlur stdDeviation="7" result="b"/><feMerge><feMergeNode in="b"/><feMergeNode in="SourceGraphic"/></feMerge></filter>
</defs>
<rect width="256" height="256" fill="url(#bgttraffic_light)"/><rect width="256" height="256" fill="url(#stttraffic_light)"/>
<g transform="translate(120 130) scale(9)" fill="none" stroke="#FF7849" stroke-opacity=".16" stroke-width="1.2" stroke-linecap="round" stroke-linejoin="round">
  <path d="M16.05 10.966a5 2.5 0 0 1-8.1 0" />
  <path d="m16.923 14.049 4.48 2.04a1 1 0 0 1 .001 1.831l-8.574 3.9a2 2 0 0 1-1.66 0l-8.574-3.91a1 1 0 0 1 0-1.83l4.484-2.04" />
  <path d="M16.949 14.14a5 2.5 0 1 1-9.9 0L10.063 3.5a2 2 0 0 1 3.874 0z" />
  <path d="M9.194 6.57a5 2.5 0 0 0 5.61 0" />
</g>
<g transform="translate(68 68) scale(5)" fill="none" stroke="#FF7849" stroke-width="1.7" stroke-linecap="round" stroke-linejoin="round" filter="url(#glttraffic_light)">
  <path d="M16.05 10.966a5 2.5 0 0 1-8.1 0" />
  <path d="m16.923 14.049 4.48 2.04a1 1 0 0 1 .001 1.831l-8.574 3.9a2 2 0 0 1-1.66 0l-8.574-3.91a1 1 0 0 1 0-1.83l4.484-2.04" />
  <path d="M16.949 14.14a5 2.5 0 1 1-9.9 0L10.063 3.5a2 2 0 0 1 3.874 0z" />
  <path d="M9.194 6.57a5 2.5 0 0 0 5.61 0" />
</g>
</svg>